<svg width="32" height="32" viewBox="0 0 32 32" fill="none" xmlns="http://www.w3.org/2000/svg">
  <circle cx="16" cy="16" r="16" fill="url(#gradient)"/>
  <path d="M16 8C17.1046 8 18 7.10457 18 6C18 4.89543 17.1046 4 16 4C14.8954 4 14 4.89543 14 6C14 7.10457 14.8954 8 16 8Z" fill="white"/>
  <path d="M16 10C15.4477 10 15 10.4477 15 11V15H11C10.4477 15 10 15.4477 10 16C10 16.5523 10.4477 17 11 17H15V21C15 21.5523 15.4477 22 16 22C16.5523 22 17 21.5523 17 21V17H21C21.5523 17 22 16.5523 22 16C22 15.4477 21.5523 15 21 15H17V11C17 10.4477 16.5523 10 16 10Z" fill="white"/>
  <path d="M8 24L12 20L16 24L20 20L24 24" stroke="white" stroke-width="2" stroke-linecap="round" stroke-linejoin="round"/>
  <defs>
    <linearGradient id="gradient" x1="0" y1="0" x2="32" y2="32" gradientUnits="userSpaceOnUse">
      <stop stop-color="#8B5CF6"/>
      <stop offset="1" stop-color="#06B6D4"/>
    </linearGradient>
  </defs>
</svg>